<?xml version="1.0" encoding="UTF-8"?>
<svg width="360px" height="360px" viewBox="0 0 105 82" version="1.1" xmlns="http://www.w3.org/2000/svg" xmlns:xlink="http://www.w3.org/1999/xlink">
    <title>lgs logo en full colour primary</title>
    <defs>
        <linearGradient x1="50%" y1="100%" x2="50%" y2="0%" id="linearGradient-1">
            <stop stop-color="#007CDA" offset="0%"></stop>
            <stop stop-color="#0067BE" offset="100%"></stop>
        </linearGradient>
        <linearGradient x1="100%" y1="50%" x2="5.23675977%" y2="50%" id="linearGradient-2">
            <stop stop-color="#3DDBD9" offset="0%"></stop>
            <stop stop-color="#00D1DE" offset="100%"></stop>
        </linearGradient>
        <linearGradient x1="50%" y1="91.1945023%" x2="93.7564516%" y2="50%" id="linearGradient-3">
            <stop stop-color="#00C8E5" offset="0%"></stop>
            <stop stop-color="#00D1DE" offset="100%"></stop>
        </linearGradient>
        <linearGradient x1="44.1843552%" y1="5.06007718%" x2="90.1093266%" y2="69.2590005%" id="linearGradient-4">
            <stop stop-color="#00C8E5" offset="0%"></stop>
            <stop stop-color="#00BFE8" offset="100%"></stop>
        </linearGradient>
        <linearGradient x1="6.61186027%" y1="29.2952673%" x2="57.5624276%" y2="95.109649%" id="linearGradient-5">
            <stop stop-color="#00BFE8" offset="0%"></stop>
            <stop stop-color="#00AEEE" offset="100%"></stop>
        </linearGradient>
        <linearGradient x1="50%" y1="3.16574261%" x2="8.90311753%" y2="51.2211748%" id="linearGradient-6">
            <stop stop-color="#00AEEE" offset="0%"></stop>
            <stop stop-color="#009EF2" offset="100%"></stop>
        </linearGradient>
        <linearGradient x1="97.074866%" y1="50%" x2="48.6738816%" y2="8.93896354%" id="linearGradient-7">
            <stop stop-color="#009EF2" offset="0%"></stop>
            <stop stop-color="#008FF5" offset="100%"></stop>
        </linearGradient>
        <linearGradient x1="61.3999115%" y1="93.5252432%" x2="72.4610472%" y2="16.3561307%" id="linearGradient-8">
            <stop stop-color="#008FF5" offset="0%"></stop>
            <stop stop-color="#007CDA" offset="100%"></stop>
        </linearGradient>
    </defs>
    <g id="lgs-logo-en-full-colour-primary" stroke="none" stroke-width="1" fill="none" fill-rule="evenodd">
        <g id="Group">
            <path d="M84,16 L84,20 C84,22.209139 82.209139,24 80,24 L66,24 C64.3431458,24 63,25.3431458 63,27 C63,28.6191985 64.2827874,29.9387859 65.8875309,29.9979308 L66,30 L75,30 C81.0751322,30 86,34.9248678 86,41 C86,47.0143809 81.1731371,51.9013876 75.1819051,51.9985263 L75,52 L63,52 C58.6650857,52 55.1354571,48.5521622 55.0038068,44.2491793 L55,44 L75,44 C76.6568542,44 78,42.6568542 78,41 C78,39.3808015 76.7172126,38.0612141 75.1124691,38.0020692 L75,38 L66,38 C59.9248678,38 55,33.0751322 55,27 C55,20.9856191 59.8268629,16.0986124 65.8180949,16.0014737 L84,16 Z" id="s" fill="#003A6D" fill-rule="nonzero"></path>
            <g id="g" transform="translate(16.998268, 15.999000)">
                <path d="M27.5854468,27.0387948 L27.3292821,27.3007986 L24.3440007,30.3155154 L21.5017318,27.5009982 C19.984284,25.9984281 19.9220921,23.5817409 21.3237293,22.004356 L21.4740122,21.8442438 L21.658586,21.6578542 C24.7827804,18.5336599 24.7827804,13.4683401 21.658586,10.3441458 C20.2123781,8.89793779 18.3139824,8.08520812 16.3170238,8.00719543 L16.000947,8.00099823 L29.862353,8.00020104 C33.341235,14.0174531 32.5796854,21.8139809 27.5854468,27.0387948 Z" id="Path" fill="url(#linearGradient-1)" fill-rule="nonzero"></path>
                <path d="M35.0017318,0.001 L35.0017318,4.001 C35.0017318,6.210139 33.2108708,8.001 31.0017318,8.001 L16.0017318,8.001 L16.0017318,0.001 L35.0017318,0.001 Z" id="Path" fill="url(#linearGradient-2)"></path>
                <path d="M16.5007318,-3.55271368e-14 L16.5007318,8 L16.0017318,8.001 C13.8897132,8.001 11.8683153,8.82070793 10.3448775,10.3441458 C8.78290769,11.9061156 8.00185912,13.9532877 8.0017318,16.0004993 L0.00173180072,16 C0.00198553209,11.9055778 1.56408269,7.81123208 4.68802327,4.6872915 C7.62913814,1.74617663 11.5280273,0.108715567 15.59455,0.00613339074 L16.0017318,0.001 L16.5007318,-3.55271368e-14 Z" id="Path" fill="url(#linearGradient-3)" fill-rule="nonzero"></path>
                <path d="M10.3448775,21.6578542 L16.4157387,27.7428439 L18.5807318,29.9206435 L12.9227318,35.5786435 L8.81992253,31.45287 L4.68802327,27.3147085 C1.43646186,24.0631471 -0.123039054,19.7602741 0.00952051605,15.5002609 L8.01729772,15.5006435 C7.87960055,17.7114086 8.65546049,19.9684372 10.3448775,21.6578542 Z" id="Path" fill="url(#linearGradient-4)" fill-rule="nonzero"></path>
                <path d="M18.332,29.671 L23.183541,34.54913 L27.3154403,38.6872915 C30.4398884,41.8117396 32.0019855,45.9069081 32.0017317,50.0019977 L24.0017318,50.0015007 C24.0018591,47.9539553 23.2208105,45.9063703 21.658586,44.3441458 L15.5877248,38.2591561 L12.674,35.329 L18.332,29.671 Z" id="Path" fill="url(#linearGradient-5)" fill-rule="nonzero"></path>
                <path d="M27.3154403,61.3147085 C24.1912459,64.4389028 20.0964889,66.001 16.0017318,66.001 L16.0012311,58.001 C18.0487765,58.0011273 20.0963615,57.2200788 21.658586,55.6578542 C23.3480031,53.9684372 24.123863,51.7114086 23.9861658,49.5006435 L31.993943,49.5002609 C32.1265026,53.7602741 30.5670017,58.0631471 27.3154403,61.3147085 Z" id="Path" fill="url(#linearGradient-6)" fill-rule="nonzero"></path>
                <path d="M10.3448775,55.6578542 C12.0341888,57.3471655 14.2910405,58.123034 16.5016729,57.9854599 L16.5016729,65.9932403 C12.2418296,66.1255432 7.93934734,64.5660326 4.68802327,61.3147085 C1.56333663,58.1900219 0.00123949824,54.0944666 7.37348959e-07,50.0008039 L8.00173177,50.001 C8.00173177,52.0483785 8.78278035,54.0957571 10.3448775,55.6578542 Z" id="Path" fill="url(#linearGradient-7)" fill-rule="nonzero"></path>
                <path d="M7.659462,35.6864836 L10.5017318,38.501 C12.01918,40.0035696 12.0813727,42.4202568 10.6797359,43.9976421 L10.529453,44.1577544 L10.3448775,44.3441458 C8.65556628,46.033457 7.87969772,48.2903088 8.01727186,50.5009412 L0.00792758545,50.5011845 C-0.122146842,46.3571739 1.34848183,42.1744552 4.41801587,38.963206 L4.67418063,38.7012022 L7.659462,35.6864836 Z" id="Path" fill="url(#linearGradient-8)" fill-rule="nonzero"></path>
            </g>
            <path d="M4,0 C6.209139,0 8,1.790861 8,4 L8,42 C8,43.1045695 8.8954305,44 10,44 L11,44 C12.6568542,44 14,45.3431458 14,47 L14,52 L10,52 C4.4771525,52 0,47.5228475 0,42 L0,0 L4,0 Z" id="l" fill="#003A6D" fill-rule="nonzero"></path>
            <path d="M57.076,66.52 C57.508,66.52 57.88,66.424 58.192,66.232 C58.504,66.04 58.728,65.752 58.864,65.368 L58.864,65.368 L58.924,65.368 C58.964,65.656 59.062,65.896 59.218,66.088 C59.374,66.28 59.632,66.376 59.992,66.376 L59.992,66.376 L60.532,66.376 L60.532,65.536 L59.824,65.536 L59.824,62.128 C59.824,61.472 59.616,60.96 59.2,60.592 C58.784,60.224 58.2,60.04 57.448,60.04 C56.888,60.04 56.424,60.158 56.056,60.394 C55.688,60.63 55.42,60.916 55.252,61.252 L55.252,61.252 L55.828,61.792 C55.996,61.512 56.206,61.288 56.458,61.12 C56.71,60.952 57.024,60.868 57.4,60.868 C57.896,60.868 58.264,60.984 58.504,61.216 C58.744,61.448 58.864,61.784 58.864,62.224 L58.864,62.224 L58.864,62.836 L57.64,62.836 C56.736,62.836 56.07,62.992 55.642,63.304 C55.214,63.616 55,64.064 55,64.648 C55,65.224 55.182,65.68 55.546,66.016 C55.91,66.352 56.42,66.52 57.076,66.52 Z M57.232,65.704 C56.856,65.704 56.558,65.62 56.338,65.452 C56.118,65.284 56.008,65.048 56.008,64.744 L56.008,64.744 L56.008,64.492 C56.008,64.188 56.134,63.956 56.386,63.796 C56.638,63.636 57.04,63.556 57.592,63.556 L57.592,63.556 L58.864,63.556 L58.864,64.576 C58.864,64.736 58.824,64.884 58.744,65.02 C58.664,65.156 58.552,65.276 58.408,65.38 C58.264,65.484 58.092,65.564 57.892,65.62 C57.692,65.676 57.472,65.704 57.232,65.704 Z M62.86,66.376 L62.86,62.08 C62.86,61.88 62.902,61.706 62.986,61.558 C63.07,61.41 63.184,61.288 63.328,61.192 C63.472,61.096 63.634,61.024 63.814,60.976 C63.994,60.928 64.18,60.904 64.372,60.904 C65.308,60.904 65.776,61.46 65.776,62.572 L65.776,62.572 L65.776,66.376 L66.736,66.376 L66.736,62.404 C66.736,61.652 66.55,61.07 66.178,60.658 C65.806,60.246 65.3,60.04 64.66,60.04 C64.196,60.04 63.826,60.144 63.55,60.352 C63.274,60.56 63.06,60.84 62.908,61.192 L62.908,61.192 L62.86,61.192 L62.86,60.184 L61.9,60.184 L61.9,66.376 L62.86,66.376 Z M74.608,66.376 L74.608,65.536 L73.432,65.536 L73.432,58.84 L74.608,58.84 L74.608,58 L71.248,58 L71.248,58.84 L72.424,58.84 L72.424,65.536 L71.248,65.536 L71.248,66.376 L74.608,66.376 Z M80.248,66.376 C80.56,66.376 80.848,66.314 81.112,66.19 C81.376,66.066 81.604,65.896 81.796,65.68 C81.988,65.464 82.138,65.208 82.246,64.912 C82.354,64.616 82.408,64.296 82.408,63.952 C82.408,63.608 82.35,63.314 82.234,63.07 C82.118,62.826 81.976,62.626 81.808,62.47 C81.64,62.314 81.462,62.2 81.274,62.128 C81.086,62.056 80.916,62.016 80.764,62.008 L80.764,62.008 L80.764,61.936 C80.9,61.912 81.048,61.866 81.208,61.798 C81.368,61.73 81.516,61.626 81.652,61.486 C81.788,61.346 81.9,61.168 81.988,60.952 C82.076,60.736 82.12,60.472 82.12,60.16 C82.12,59.504 81.922,58.98 81.526,58.588 C81.13,58.196 80.584,58 79.888,58 L79.888,58 L76.444,58 L76.444,66.376 L80.248,66.376 Z M79.768,61.624 L77.452,61.624 L77.452,58.888 L79.768,58.888 C80.168,58.888 80.48,58.988 80.704,59.188 C80.928,59.388 81.04,59.676 81.04,60.052 L81.04,60.052 L81.04,60.46 C81.04,60.836 80.928,61.124 80.704,61.324 C80.48,61.524 80.168,61.624 79.768,61.624 L79.768,61.624 Z M79.936,65.488 L77.452,65.488 L77.452,62.488 L79.936,62.488 C80.368,62.488 80.708,62.598 80.956,62.818 C81.204,63.038 81.328,63.36 81.328,63.784 L81.328,63.784 L81.328,64.192 C81.328,64.616 81.204,64.938 80.956,65.158 C80.708,65.378 80.368,65.488 79.936,65.488 L79.936,65.488 Z M85.264,66.376 L85.264,59.32 L85.324,59.32 L86.032,60.724 L88.036,64.372 L90.04,60.724 L90.748,59.32 L90.808,59.32 L90.808,66.376 L91.792,66.376 L91.792,58 L90.496,58 L88.084,62.512 L88.024,62.512 L85.624,58 L84.28,58 L84.28,66.376 L85.264,66.376 Z M58.54,78.52 C59.244,78.52 59.844,78.35 60.34,78.01 C60.836,77.67 61.216,77.204 61.48,76.612 L61.48,76.612 L60.676,76.108 C60.508,76.564 60.244,76.93 59.884,77.206 C59.524,77.482 59.076,77.62 58.54,77.62 C57.812,77.62 57.248,77.376 56.848,76.888 C56.448,76.4 56.248,75.724 56.248,74.86 L56.248,74.86 L56.248,73.612 C56.248,73.18 56.3,72.79 56.404,72.442 C56.508,72.094 56.658,71.794 56.854,71.542 C57.05,71.29 57.29,71.096 57.574,70.96 C57.858,70.824 58.18,70.756 58.54,70.756 C59.06,70.756 59.492,70.886 59.836,71.146 C60.18,71.406 60.436,71.752 60.604,72.184 L60.604,72.184 L61.42,71.692 C61.156,71.108 60.786,70.656 60.31,70.336 C59.834,70.016 59.244,69.856 58.54,69.856 C57.476,69.856 56.648,70.234 56.056,70.99 C55.464,71.746 55.168,72.828 55.168,74.236 C55.168,75.644 55.464,76.71 56.056,77.434 C56.648,78.158 57.476,78.52 58.54,78.52 Z M65.284,78.52 C65.7,78.52 66.078,78.444 66.418,78.292 C66.758,78.14 67.052,77.922 67.3,77.638 C67.548,77.354 67.74,77.014 67.876,76.618 C68.012,76.222 68.08,75.776 68.08,75.28 C68.08,74.792 68.012,74.348 67.876,73.948 C67.74,73.548 67.548,73.206 67.3,72.922 C67.052,72.638 66.758,72.42 66.418,72.268 C66.078,72.116 65.7,72.04 65.284,72.04 C64.868,72.04 64.488,72.116 64.144,72.268 C63.8,72.42 63.506,72.638 63.262,72.922 C63.018,73.206 62.828,73.548 62.692,73.948 C62.556,74.348 62.488,74.792 62.488,75.28 C62.488,75.776 62.556,76.222 62.692,76.618 C62.828,77.014 63.018,77.354 63.262,77.638 C63.506,77.922 63.8,78.14 64.144,78.292 C64.488,78.444 64.868,78.52 65.284,78.52 Z M65.284,77.668 C64.764,77.668 64.34,77.508 64.012,77.188 C63.684,76.868 63.52,76.38 63.52,75.724 L63.52,75.724 L63.52,74.836 C63.52,74.18 63.684,73.692 64.012,73.372 C64.34,73.052 64.764,72.892 65.284,72.892 C65.804,72.892 66.228,73.052 66.556,73.372 C66.884,73.692 67.048,74.18 67.048,74.836 L67.048,74.836 L67.048,75.724 C67.048,76.38 66.884,76.868 66.556,77.188 C66.228,77.508 65.804,77.668 65.284,77.668 Z M70.624,78.376 L70.624,74.08 C70.624,73.88 70.666,73.706 70.75,73.558 C70.834,73.41 70.944,73.288 71.08,73.192 C71.216,73.096 71.372,73.024 71.548,72.976 C71.724,72.928 71.908,72.904 72.1,72.904 C72.556,72.904 72.892,73.044 73.108,73.324 C73.324,73.604 73.432,74.02 73.432,74.572 L73.432,74.572 L73.432,78.376 L74.392,78.376 L74.392,74.08 C74.392,73.88 74.432,73.706 74.512,73.558 C74.592,73.41 74.7,73.288 74.836,73.192 C74.972,73.096 75.126,73.024 75.298,72.976 C75.47,72.928 75.652,72.904 75.844,72.904 C76.316,72.904 76.66,73.044 76.876,73.324 C77.092,73.604 77.2,74.02 77.2,74.572 L77.2,74.572 L77.2,78.376 L78.16,78.376 L78.16,74.404 C78.16,73.652 77.982,73.07 77.626,72.658 C77.27,72.246 76.776,72.04 76.144,72.04 C75.616,72.04 75.198,72.166 74.89,72.418 C74.582,72.67 74.372,72.964 74.26,73.3 L74.26,73.3 L74.236,73.3 C74.068,72.852 73.812,72.53 73.468,72.334 C73.124,72.138 72.748,72.04 72.34,72.04 C72.1,72.04 71.892,72.07 71.716,72.13 C71.54,72.19 71.386,72.272 71.254,72.376 C71.122,72.48 71.01,72.602 70.918,72.742 C70.826,72.882 70.744,73.032 70.672,73.192 L70.672,73.192 L70.624,73.192 L70.624,72.184 L69.664,72.184 L69.664,78.376 L70.624,78.376 Z M81.1,80.776 L81.1,77.368 L81.148,77.368 C81.516,78.136 82.12,78.52 82.96,78.52 C83.344,78.52 83.692,78.444 84.004,78.292 C84.316,78.14 84.582,77.924 84.802,77.644 C85.022,77.364 85.19,77.024 85.306,76.624 C85.422,76.224 85.48,75.776 85.48,75.28 C85.48,74.784 85.422,74.336 85.306,73.936 C85.19,73.536 85.022,73.196 84.802,72.916 C84.582,72.636 84.316,72.42 84.004,72.268 C83.692,72.116 83.344,72.04 82.96,72.04 C82.528,72.04 82.158,72.134 81.85,72.322 C81.542,72.51 81.308,72.8 81.148,73.192 L81.148,73.192 L81.1,73.192 L81.1,72.184 L80.14,72.184 L80.14,80.776 L81.1,80.776 Z M82.696,77.656 C82.48,77.656 82.274,77.628 82.078,77.572 C81.882,77.516 81.712,77.434 81.568,77.326 C81.424,77.218 81.31,77.086 81.226,76.93 C81.142,76.774 81.1,76.596 81.1,76.396 L81.1,76.396 L81.1,74.092 C81.1,73.924 81.142,73.766 81.226,73.618 C81.31,73.47 81.424,73.344 81.568,73.24 C81.712,73.136 81.882,73.054 82.078,72.994 C82.274,72.934 82.48,72.904 82.696,72.904 C83.24,72.904 83.668,73.074 83.98,73.414 C84.292,73.754 84.448,74.2 84.448,74.752 L84.448,74.752 L84.448,75.808 C84.448,76.36 84.292,76.806 83.98,77.146 C83.668,77.486 83.24,77.656 82.696,77.656 Z M88.684,78.52 C89.116,78.52 89.488,78.424 89.8,78.232 C90.112,78.04 90.336,77.752 90.472,77.368 L90.472,77.368 L90.532,77.368 C90.572,77.656 90.67,77.896 90.826,78.088 C90.982,78.28 91.24,78.376 91.6,78.376 L91.6,78.376 L92.14,78.376 L92.14,77.536 L91.432,77.536 L91.432,74.128 C91.432,73.472 91.224,72.96 90.808,72.592 C90.392,72.224 89.808,72.04 89.056,72.04 C88.496,72.04 88.032,72.158 87.664,72.394 C87.296,72.63 87.028,72.916 86.86,73.252 L86.86,73.252 L87.436,73.792 C87.604,73.512 87.814,73.288 88.066,73.12 C88.318,72.952 88.632,72.868 89.008,72.868 C89.504,72.868 89.872,72.984 90.112,73.216 C90.352,73.448 90.472,73.784 90.472,74.224 L90.472,74.224 L90.472,74.836 L89.248,74.836 C88.344,74.836 87.678,74.992 87.25,75.304 C86.822,75.616 86.608,76.064 86.608,76.648 C86.608,77.224 86.79,77.68 87.154,78.016 C87.518,78.352 88.028,78.52 88.684,78.52 Z M88.84,77.704 C88.464,77.704 88.166,77.62 87.946,77.452 C87.726,77.284 87.616,77.048 87.616,76.744 L87.616,76.744 L87.616,76.492 C87.616,76.188 87.742,75.956 87.994,75.796 C88.246,75.636 88.648,75.556 89.2,75.556 L89.2,75.556 L90.472,75.556 L90.472,76.576 C90.472,76.736 90.432,76.884 90.352,77.02 C90.272,77.156 90.16,77.276 90.016,77.38 C89.872,77.484 89.7,77.564 89.5,77.62 C89.3,77.676 89.08,77.704 88.84,77.704 Z M94.468,78.376 L94.468,74.08 C94.468,73.88 94.51,73.706 94.594,73.558 C94.678,73.41 94.792,73.288 94.936,73.192 C95.08,73.096 95.242,73.024 95.422,72.976 C95.602,72.928 95.788,72.904 95.98,72.904 C96.916,72.904 97.384,73.46 97.384,74.572 L97.384,74.572 L97.384,78.376 L98.344,78.376 L98.344,74.404 C98.344,73.652 98.158,73.07 97.786,72.658 C97.414,72.246 96.908,72.04 96.268,72.04 C95.804,72.04 95.434,72.144 95.158,72.352 C94.882,72.56 94.668,72.84 94.516,73.192 L94.516,73.192 L94.468,73.192 L94.468,72.184 L93.508,72.184 L93.508,78.376 L94.468,78.376 Z M100.78,80.776 C101.004,80.776 101.194,80.76 101.35,80.728 C101.506,80.696 101.636,80.644 101.74,80.572 C101.844,80.5 101.932,80.402 102.004,80.278 C102.076,80.154 102.148,80 102.22,79.816 L102.22,79.816 L104.992,72.184 L104.044,72.184 L102.544,76.396 L102.208,77.404 L102.148,77.404 L101.86,76.396 L100.372,72.184 L99.412,72.184 L101.728,78.616 L101.26,79.936 L100.288,79.936 L100.288,80.776 L100.78,80.776 Z" id="anIBMCompany" fill="#697077" fill-rule="nonzero"></path>
        </g>
    </g>
</svg>